# xmcd
#
# Track frame offsets: 
#        150
#        14037
#        35827
#        60595
#        81477
#        104065
#        125145
#        144027
#        163235
#        190840
#        205807
#        223179
#        242235
#        259808
#        280157
#        298556
#        317755
#        335504
#
# Disc length: 4708 seconds
#
# Revision: 3
# Processed by: cddbd v1.5.2PL0 Copyright (c) Steve Scherf et al.
# Submitted via: ExactAudioCopy v0.95b4
#
DISCID=26126212
DTITLE=Chris Rea - Stony Road 
DYEAR=2002
DGENRE=R&B
TTITLE0=Changing Time
TTITLE1=Easy Rider
TTITLE2=Stony Road
TTITLE3=Dancing The Blues Away
TTITLE4=Burning Feet
TTITLE5=Mississipi
TTITLE6=Slow Dance
TTITLE7=When The Good Lord Talked To Jesus
TTITLE8=Heading For The City
TTITLE9=So Lonely
TTITLE10=Someday My Peace Will Come
TTITLE11=The Hustler
TTITLE12=Give That Girl A Diamond
TTITLE13=The Road To Hell (Bonus)
TTITLE14=Fool  (If You It's Over)  (Bonus)
TTITLE15=Let's Dance  (Bonus)
TTITLE16=You Can Go Your Own Way  (Bonus)
TTITLE17=Julia  (Bonus)
EXTD=
EXTT0=
EXTT1=
EXTT2=
EXTT3=
EXTT4=
EXTT5=
EXTT6=
EXTT7=
EXTT8=
EXTT9=
EXTT10=
EXTT11=
EXTT12=
EXTT13=
EXTT14=
EXTT15=
EXTT16=
EXTT17=
PLAYORDER=
